<?xml version="1.0" encoding="utf-8"?>
<svg version="1.2" baseProfile="tiny" xmlns="http://www.w3.org/2000/svg" xmlns:xlink="http://www.w3.org/1999/xlink" x="0px" y="0px" viewBox="0 0 512 512" xml:space="preserve">
	<linearGradient id="SVGID_1_" gradientUnits="userSpaceOnUse" x1="0.1139" y1="258.114" x2="512.1139" y2="258.114" gradientTransform="matrix(1 0 0 -1 0 514)"> <stop  offset="0" style="stop-color:#B9844D"/> <stop  offset="0.1" style="stop-color:#E2A756"/> <stop  offset="0.3" style="stop-color:#EABA57"/> <stop  offset="0.4893" style="stop-color:#F4D65D"/> <stop  offset="0.65" style="stop-color:#F8ED62"/> <stop  offset="0.737" style="stop-color:#F2DF5E"/> <stop  offset="0.8871" style="stop-color:#DEBF56"/> <stop  offset="1" style="stop-color:#CEA550"/> </linearGradient>
	<path fill="url(#SVGID_1_)" d="M256.2,0c141.4,0,255.9,114.7,255.9,255.9c0,141.4-114.7,255.9-255.9,255.9 C114.8,511.8,0.1,397.1,0.1,255.9C0.3,114.5,114.8,0,256.2,0L256.2,0z"/>
	<path fill="#0D0F0F" d="M64.7,86.2c123.6-10.5,259.3-10.9,383.1,0C400.8,33.3,332.4,0,256.2,0C180.1,0,111.6,33.3,64.7,86.2 L64.7,86.2z"/>
	<path fill="#0D0F0F" d="M450.3,422.8c-120.2,9.4-263,10-388.2,0c47,54.5,116.5,89.2,194.1,89.2C334,511.8,403.3,477.3,450.3,422.8 L450.3,422.8z"/>
	<path fill="#0D0F0F" d="M8.6,190.9c166.5-3,328.9-3.4,495.1,0c5.5,20.8,8.4,42.6,8.4,65c0,19.6-2.3,38.5-6.4,56.8 c-168.5,4.8-334.3,3.6-499.5,0c-4.1-18.2-6.4-37.2-6.4-56.8C0.3,233.5,3.1,211.6,8.6,190.9L8.6,190.9z"/>
	<defs> <path id="SVGID_2_" d="M256.2,0c141.4,0,255.9,114.7,255.9,255.9c0,141.4-114.7,255.9-255.9,255.9 C114.8,511.8,0.1,397.1,0.1,255.9C0.3,114.5,114.8,0,256.2,0L256.2,0z"/> </defs>
	<clipPath id="SVGID_3_"> <use xlink:href="#SVGID_2_"  overflow="visible"/> </clipPath>
	<radialGradient id="SVGID_4_" cx="378.2413" cy="396.0918" r="253.9477" gradientTransform="matrix(1 0 0 -1 0 514)" gradientUnits="userSpaceOnUse"> <stop  offset="0" style="stop-color:#FFFFFF;stop-opacity:0.7"/> <stop  offset="1" style="stop-color:#FFFFFF;stop-opacity:0"/> </radialGradient>
	<path clip-path="url(#SVGID_3_)" fill="url(#SVGID_4_)" d="M632.5,117.9c0,140-113.8,253.6-254.3,253.6S124,257.9,124,117.9 s113.8-253.6,254.3-253.6C518.5-135.7,632.5-22.1,632.5,117.9z"/>
	<radialGradient id="SVGID_5_" cx="256.1139" cy="258.114" r="255.943" gradientTransform="matrix(1 0 0 -1 0 514)" gradientUnits="userSpaceOnUse"> <stop  offset="0.9" style="stop-color:#FFFFFF;stop-opacity:0"/> <stop  offset="1" style="stop-color:#FFFFFF;stop-opacity:0.3"/> </radialGradient>
	<path fill="url(#SVGID_5_)" d="M256.2,0c141.4,0,255.9,114.7,255.9,255.9c0,141.4-114.7,255.9-255.9,255.9 C114.8,511.8,0.1,397.1,0.1,255.9C0.3,114.5,114.8,0,256.2,0L256.2,0z"/>
</svg>