<?xml version="1.0" encoding="utf-8"?>
<svg version="1.2" baseProfile="tiny" xmlns="http://www.w3.org/2000/svg" xmlns:xlink="http://www.w3.org/1999/xlink" x="0px" y="0px" viewBox="0 0 474.6 100" xml:space="preserve">
	<rect y="33.3" width="14.8" height="40.7"/>
	<rect x="22.2" y="18.5" width="14.8" height="70.4"/>
	<rect x="44.4" width="14.8" height="100"/>
	<rect x="66.7" y="14.8" width="14.8" height="66.7"/>
	<rect x="88.9" y="33.3" width="14.8" height="33.3"/>
	<path d="M185.9,78.7h-8.6V50.8h-30.7v27.9h-8.6V15.5h8.6v28.6h30.7V15.5h8.6C185.9,15.5,185.9,78.7,185.9,78.7z"/>
	<path d="M247.9,49.4H219V72h33.4v6.7h-41.9V15.5h41.4v6.7H219v20.4h28.9V49.4z"/>
	<path d="M279.8,72h29.9v6.7h-38.5V15.5h8.6V72z"/>
	<path d="M337.2,78.7h-8.6V15.5h8.6V78.7z"/>
	<path d="M410,52.7c0,7.7-2.4,14.1-7.2,19.2s-11,7.6-18.6,7.6c-7.4,0-13.4-2.5-18-7.6c-4.6-5.1-6.9-11.5-6.9-19.2 V41.5c0-7.7,2.3-14.1,6.9-19.2c4.6-5.1,10.6-7.7,18-7.7c7.6,0,13.9,2.6,18.6,7.7s7.2,11.5,7.2,19.2V52.7z M401.5,41.4 c0-5.8-1.6-10.5-4.7-14.2c-3.1-3.7-7.3-5.6-12.6-5.6c-5,0-8.9,1.9-11.9,5.6s-4.4,8.4-4.4,14.2v11.3c0,5.8,1.5,10.6,4.4,14.3 c3,3.7,6.9,5.6,11.9,5.6c5.3,0,9.5-1.8,12.6-5.5c3.1-3.7,4.7-8.5,4.7-14.3V41.4z"/>
	<path d="M466.1,62.8c0-2.9-1.1-5.3-3.3-7.2c-2.2-1.9-6-3.6-11.5-4.9c-6.7-1.6-11.9-3.9-15.6-7 c-3.7-3.1-5.6-7-5.6-11.7c0-4.9,2-9,6.1-12.4c4-3.3,9.3-5,15.7-5c6.9,0,12.4,1.9,16.5,5.7c4.1,3.8,6.1,8.2,5.9,13.2l-0.1,0.3H466 c0-3.7-1.2-6.7-3.7-9s-6-3.4-10.5-3.4c-4.3,0-7.5,1-9.8,2.9c-2.3,1.9-3.4,4.4-3.4,7.5c0,2.7,1.2,5,3.7,6.9c2.5,1.8,6.5,3.5,12,4.8 c6.7,1.6,11.7,4.1,15.2,7.3s5.2,7.2,5.2,11.9c0,5.1-2.1,9.2-6.3,12.3c-4.2,3.1-9.6,4.6-16.3,4.6c-6.3,0-11.9-1.7-16.7-5.1 c-4.8-3.4-7.2-8-7.1-13.7l0.1-0.3h8.2c0,4.1,1.5,7.1,4.5,9.2c3,2.1,6.7,3.2,11.1,3.2c4.3,0,7.7-0.9,10.2-2.7 C464.8,68.4,466.1,65.9,466.1,62.8z"/>
</svg>