<?xml version="1.0" encoding="utf-8"?>
<svg version="1.2" baseProfile="tiny" xmlns="http://www.w3.org/2000/svg" xmlns:xlink="http://www.w3.org/1999/xlink" x="0px" y="0px" viewBox="0 0 512 512" xml:space="preserve">
	<path fill="#6EAD61" d="M255.9,0C114.5,0-0.1,114.6-0.1,256c0,125.7,90.7,230.2,210.2,251.9V282.7c0-10.6,8.7-19.1,19.1-19.1h34.1 c1.1,0,1.8-0.9,1.8-1.8V0.4C262.2,0.2,259.2,0,255.9,0L255.9,0z M206.7,219.6c-16.6,0-30.1-13.5-30.1-30.1s13.5-30.1,30.1-30.1 s30.1,13.5,30.1,30.1S223.4,219.6,206.7,219.6L206.7,219.6z"/>
	<path fill="#4A527E" d="M295.8,3.1v270.8c0,10.6-8.7,19.1-19.1,19.1h-34.1c-1.1,0-1.8,0.9-1.8,1.8v216.7c5.1,0.4,10.1,0.5,15.3,0.5 c141.4,0,256-114.6,256-256C511.9,128.3,418.1,22.4,295.8,3.1L295.8,3.1z M294.2,387.3c-15,0-26.9-12.1-26.9-26.9 c0-15,12.1-26.9,26.9-26.9c15,0,26.9,12.1,26.9,26.9C321,375.4,308.9,387.3,294.2,387.3L294.2,387.3z M365.4,387.3 c-15,0-26.9-12.1-26.9-26.9c0-15,12.1-26.9,26.9-26.9c15,0,26.9,12.1,26.9,26.9C392.5,375.4,380.4,387.3,365.4,387.3L365.4,387.3z M436.9,387.3c-15,0-26.9-12.1-26.9-26.9c0-15,12.1-26.9,26.9-26.9c15,0,26.9,12.1,26.9,26.9C463.7,375.4,451.7,387.3,436.9,387.3 L436.9,387.3z"/>
</svg>