<?xml version="1.0" encoding="utf-8"?>
<svg version="1.2" baseProfile="tiny" xmlns="http://www.w3.org/2000/svg" xmlns:xlink="http://www.w3.org/1999/xlink" x="0px" y="0px" viewBox="0 0 512 512" xml:space="preserve">
	<path d="M293.3,256.4L503.7,47.1c10.1-10,10.1-26.2,0-36.1c-10.1-10-26.4-10-36.5,0L257,220.1L44.8,7.9 C34.7-2.2,18.4-2.2,8.3,7.9C-1.7,18-1.7,34.3,8.3,44.4l212,212.1L7.5,468.1c-10.1,10-10.1,26.2,0,36.1c10.1,10,26.4,10,36.5,0 l212.6-211.4L468,504.1c10.1,10.1,26.4,10.1,36.5,0c10.1-10.1,10.1-26.5,0-36.6L293.3,256.4z"/>
</svg>