<?xml version="1.0" encoding="utf-8"?>
<svg version="1.2" baseProfile="tiny" xmlns="http://www.w3.org/2000/svg" xmlns:xlink="http://www.w3.org/1999/xlink" x="0px" y="0px" viewBox="0 0 512 512" xml:space="preserve">
	<path d="M16,112h480c8.8,0,16-7.2,16-16c0-8.8-7.2-16-16-16H16C7.2,80,0,87.2,0,96S7.2,112,16,112z"/>
	<path d="M496,240H16c-8.8,0-16,7.2-16,16c0,8.8,7.2,16,16,16h480c8.8,0,16-7.2,16-16C512,247.2,504.8,240,496,240z"/>
	<path d="M496,400H16c-8.8,0-16,7.2-16,16c0,8.8,7.2,16,16,16h480c8.8,0,16-7.2,16-16C512,407.2,504.8,400,496,400z"/>
</svg>