<?xml version="1.0" encoding="utf-8"?>
<svg version="1.2" baseProfile="tiny" xmlns="http://www.w3.org/2000/svg" xmlns:xlink="http://www.w3.org/1999/xlink" x="0px" y="0px" viewBox="0 0 512 512" xml:space="preserve">
	<path d="M18.9,61.5h54.3l77.3,279.7c2.2,8.2,9.8,13.9,18.3,13.9h237.7c7.6,0,14.2-4.4,17.4-11.4l86.5-198.9 c2.5-6,1.9-12.6-1.6-18c-3.5-5.4-9.5-8.5-15.8-8.5H230.5c-10.4,0-18.9,8.5-18.9,18.9c0,10.4,8.5,18.9,18.9,18.9h233.6l-70.1,161 H183.1L105.8,37.5c-2.2-8.2-9.8-13.9-18.3-13.9H18.9C8.5,23.7,0,32.2,0,42.6S8.5,61.5,18.9,61.5z"/>
	<path d="M150.9,488.3c23.7,0,42.9-19.3,42.9-42.9s-19.3-42.9-42.9-42.9S108,421.7,108,445.4 C108,469.1,127.2,488.3,150.9,488.3z"/>
	<path d="M419.2,488.3c0.9,0,2.2,0,3.2,0c11.4-0.9,21.8-6,29.4-14.8c7.6-8.5,11-19.6,10.4-31.3 c-1.6-23.4-22.1-41.4-45.8-39.8s-41.4,22.4-39.8,45.8C378.2,470.7,396.8,488.3,419.2,488.3z"/>
</svg>