<?xml version="1.0" encoding="utf-8"?>
<!-- Generator: Adobe Illustrator 15.0.2, SVG Export Plug-In . SVG Version: 6.00 Build 0)  -->
<!DOCTYPE svg PUBLIC "-//W3C//DTD SVG 1.1//EN" "http://www.w3.org/Graphics/SVG/1.1/DTD/svg11.dtd">
<svg version="1.1" id="Слой_1" xmlns="http://www.w3.org/2000/svg" xmlns:xlink="http://www.w3.org/1999/xlink" x="0px" y="0px"
	 width="285.632px" height="54.598px" viewBox="0 0 285.632 54.598" enable-background="new 0 0 285.632 54.598"
	 xml:space="preserve">
<g>
	<defs>
		<rect id="SVGID_1_" x="-844.437" y="-348.253" width="1920" height="1585"/>
	</defs>
	<clipPath id="SVGID_2_">
		<use xlink:href="#SVGID_1_"  overflow="visible"/>
	</clipPath>
	<path clip-path="url(#SVGID_2_)" fill="#FFFFFF" d="M13.306,28.325L6.683,16.314c-0.28,2.151-0.561,4.303-0.842,6.454
		c1.347,3.349,2.694,6.698,4.041,10.046l-3.662,9.05c-0.8,0.478-1.6,0.954-2.399,1.432c-0.252,0.645-0.505,1.291-0.758,1.936
		c0,0,5.051,0.028,7.577,0.042c1.123-1.655,2.245-3.985,3.367-5.641c2.386-1.6,4.771-3.199,7.156-4.799
		C18.544,32.665,13.306,28.325,13.306,28.325"/>
	<path clip-path="url(#SVGID_2_)" fill="#FFFFFF" d="M22.426,8.358c-1.375-0.622-2.75-1.244-4.125-1.866
		c-0.374-0.599-0.749-1.197-1.123-1.796c-0.599-0.336-1.197-0.673-1.796-1.01c-0.786,0.524-1.572,1.048-2.357,1.571
		c-0.318,1.188-0.636,2.376-0.954,3.564c1.642-0.252,4.925-0.758,4.925-0.758C18.806,8.162,20.616,8.26,22.426,8.358"/>
	<path clip-path="url(#SVGID_2_)" fill="#FFFFFF" d="M43.558,42.496c-0.575,0.379-1.15,0.758-1.726,1.137
		c-0.21,0.575-0.421,1.151-0.631,1.726c0,0,4.939,0.057,7.408,0.084c0.59-3.428,1.039-5.868,1.347-7.661
		c-0.487-1.028-0.974-2.056-1.46-3.083c-3.228,0.358-6.455,0.717-9.682,1.076c0.78,1.151,1.585,2.314,2.415,3.487
		C42.006,40.363,43.558,42.496,43.558,42.496"/>
	<path clip-path="url(#SVGID_2_)" fill="#FFFFFF" d="M30.998,10.629c-0.583-0.725-1.165-1.448-1.747-2.173
		C27.3,7.732,25.35,7.007,23.4,6.283l-0.568-1.761c-0.417-0.342-0.834-0.683-1.25-1.022c-0.549,0.208-1.098,0.416-1.646,0.625
		c-0.375,0.491-0.749,0.984-1.122,1.477c3.237,1.32,6.639,2.824,9.749,4.422c0,0,1.054,2.288,1.582,3.432
		c1.527,0.251,3.054,0.501,4.581,0.752c0.149,0.178,0.299,0.355,0.448,0.532c-0.023,0.059-0.047,0.117-0.071,0.177
		c-0.022,0.054-0.045,0.108-0.067,0.162l-1.041,0.521l0.756,0.78c-0.271,0.61-0.542,1.223-0.813,1.833
		c-0.782,0.894-1.566,1.788-2.349,2.682c-1.321-0.215-2.642-0.431-3.963-0.646l1.173,1.258c-0.903,0.22-1.806,0.44-2.709,0.66
		c-2.555-0.451-6.722-0.972-6.722-0.972l7.285,21.003c-0.88,0.64-1.761,1.278-2.642,1.916c-0.241,0.711-0.483,1.421-0.724,2.132
		c0,0,5.718,0.019,8.577,0.028c0.682-2.216,2.044-6.816,2.044-6.816l-0.483-5.056l15.611-1.973c0,0,2.261-2.549,3.39-3.821
		c-0.397,2.063-0.794,4.127-1.192,6.191c0.751,1.23,1.546,2.486,2.385,3.763c0.87,1.321,2.599,3.806,2.599,3.806
		c-0.823,0.583-1.646,1.165-2.471,1.746c-0.307,0.758-0.615,1.517-0.922,2.273c0,0,6.268,0.075,9.401,0.113l2.699-6.816
		c-0.162-5.112-0.323-9.373-0.483-14.485c0.88-0.028,1.761-0.057,2.641-0.085c-1.59-2.982-3.181-5.965-4.771-8.946
		c-4.81-2.574-9.619-5.15-14.428-7.726C42.254,9.171,36.626,9.899,30.998,10.629"/>
	<path clip-path="url(#SVGID_2_)" fill="#FFFFFF" d="M24.632,11.906c0.771-0.334,1.542-0.669,2.313-1.004
		c0.24,0.568,0.48,1.137,0.72,1.706C26.654,12.374,25.643,12.14,24.632,11.906"/>
	<polygon clip-path="url(#SVGID_2_)" fill="#2DBE60" points="95.363,35.425 95.363,19.6 88.992,35.425 86.891,35.425 80.521,19.6 
		80.521,35.425 75.709,35.425 75.709,12.823 82.452,12.823 87.942,26.479 93.431,12.823 100.208,12.823 100.208,35.425 	"/>
	<path clip-path="url(#SVGID_2_)" fill="#2DBE60" d="M102.921,24.141c0-6.811,4.981-11.691,11.792-11.691
		c6.845,0,11.826,4.88,11.826,11.691c0,6.812-4.981,11.691-11.826,11.691C107.902,35.832,102.921,30.952,102.921,24.141
		 M121.592,24.141c0-4.236-2.711-7.421-6.879-7.421c-4.168,0-6.845,3.185-6.845,7.421c0,4.202,2.677,7.421,6.845,7.421
		C118.881,31.562,121.592,28.343,121.592,24.141"/>
	<path clip-path="url(#SVGID_2_)" fill="#2DBE60" d="M128.167,24.141c0-7.15,5.422-11.691,12.029-11.691
		c4.711,0,7.659,2.373,9.354,5.05l-3.999,2.168c-1.017-1.593-2.948-2.948-5.354-2.948c-4.1,0-7.082,3.151-7.082,7.421
		c0,4.27,2.982,7.421,7.082,7.421c2,0,3.897-0.881,4.813-1.729v-2.711h-5.964v-4.202h10.775v8.675
		c-2.304,2.576-5.523,4.27-9.624,4.27C133.589,35.866,128.167,31.257,128.167,24.141"/>
	<path clip-path="url(#SVGID_2_)" fill="#2DBE60" d="M152.973,26.411V12.823h4.88v13.419c0,3.151,1.83,5.32,5.32,5.32
		s5.286-2.169,5.286-5.32V12.823h4.914v13.555c0,5.625-3.321,9.455-10.2,9.455S152.973,31.968,152.973,26.411"/>
	<polygon clip-path="url(#SVGID_2_)" fill="#2DBE60" points="182.354,35.425 182.354,17.059 175.746,17.059 175.746,12.823 
		193.773,12.823 193.773,17.059 187.2,17.059 187.2,35.425 	"/>
	<path clip-path="url(#SVGID_2_)" fill="#2DBE60" d="M209.599,35.425l-1.39-3.83h-9.691l-1.424,3.83h-5.489l8.743-22.603h6.032
		l8.708,22.603H209.599z M203.364,17.634l-3.524,9.726h7.049L203.364,17.634z"/>
	<path clip-path="url(#SVGID_2_)" fill="#FFFFFF" d="M217.852,24.141c0-6.947,5.05-11.691,11.454-11.691
		c3.592,0,6.303,1.593,8.234,3.999l-1.627,1.051c-1.423-1.966-3.896-3.288-6.607-3.288c-5.32,0-9.421,4.033-9.421,9.929
		c0,5.829,4.101,9.929,9.421,9.929c2.711,0,5.185-1.322,6.607-3.288l1.627,1.017c-1.999,2.474-4.643,4.032-8.234,4.032
		C222.902,35.832,217.852,31.088,217.852,24.141"/>
	<polygon clip-path="url(#SVGID_2_)" fill="#FFFFFF" points="259.974,35.425 259.974,15.466 251.74,35.425 250.995,35.425 
		242.726,15.466 242.726,35.425 240.794,35.425 240.794,12.823 243.675,12.823 251.368,31.46 259.026,12.823 261.94,12.823 
		261.94,35.425 	"/>
	<path clip-path="url(#SVGID_2_)" fill="#FFFFFF" d="M265.634,32.24l1.254-1.457c1.457,1.694,3.829,3.287,7.049,3.287
		c4.643,0,5.964-2.576,5.964-4.507c0-6.642-13.555-3.185-13.555-11.081c0-3.694,3.321-6.032,7.421-6.032
		c3.389,0,5.896,1.186,7.659,3.186l-1.288,1.423c-1.627-1.965-3.931-2.847-6.473-2.847c-3.017,0-5.286,1.729-5.286,4.168
		c0,5.795,13.555,2.61,13.555,11.047c0,2.914-1.932,6.404-8.031,6.404C270.175,35.832,267.363,34.34,265.634,32.24"/>
	<path clip-path="url(#SVGID_2_)" fill="#2AB45B" d="M75,42.878c0-1.818,1.2-3.296,3.112-3.296s3.111,1.478,3.111,3.296
		c0,1.819-1.199,3.308-3.111,3.308S75,44.698,75,42.878 M80.2,42.878c0-1.282-0.756-2.418-2.088-2.418
		c-1.333,0-2.098,1.136-2.098,2.418c0,1.292,0.765,2.43,2.098,2.43C79.444,45.308,80.2,44.171,80.2,42.878"/>
	<path clip-path="url(#SVGID_2_)" fill="#2AB45B" d="M82.441,42.878c0-1.871,1.272-3.296,3.131-3.296
		c1.158,0,1.819,0.475,2.305,1.095l-0.641,0.6c-0.435-0.58-0.962-0.816-1.602-0.816c-1.354,0-2.182,1.023-2.182,2.418
		c0,1.396,0.827,2.43,2.182,2.43c0.64,0,1.167-0.27,1.602-0.816l0.641,0.6c-0.486,0.619-1.147,1.095-2.305,1.095
		C83.713,46.187,82.441,44.738,82.441,42.878"/>
	<polygon clip-path="url(#SVGID_2_)" fill="#2AB45B" points="89.252,46.021 89.252,39.748 90.212,39.748 90.212,42.363 93.5,42.363 
		93.5,39.748 94.482,39.748 94.482,46.021 93.5,46.021 93.5,43.209 90.212,43.209 90.212,46.021 	"/>
	<path clip-path="url(#SVGID_2_)" fill="#2AB45B" d="M96.051,42.878c0-1.818,1.199-3.296,3.112-3.296
		c1.912,0,3.111,1.478,3.111,3.296c0,1.819-1.199,3.308-3.111,3.308C97.25,46.187,96.051,44.698,96.051,42.878 M101.25,42.878
		c0-1.282-0.733-2.418-2.087-2.418c-1.333,0-2.099,1.136-2.099,2.418c0,1.292,0.766,2.43,2.099,2.43
		C100.517,45.308,101.25,44.171,101.25,42.878"/>
	<path clip-path="url(#SVGID_2_)" fill="#2AB45B" d="M103.864,46.021v-6.272h3.451c1.106,0,1.778,0.649,1.778,1.612
		c0,0.743-0.485,1.249-1.012,1.426c0.63,0.143,1.135,0.815,1.135,1.529c0,1.013-0.659,1.706-1.828,1.706H103.864z M108.092,41.494
		c0-0.537-0.33-0.899-0.929-0.899h-2.315v1.777h2.315C107.772,42.372,108.092,41.99,108.092,41.494 M108.206,44.201
		c0-0.506-0.341-0.981-1.013-0.981h-2.345v1.954h2.345C107.812,45.174,108.206,44.801,108.206,44.201"/>
	<path clip-path="url(#SVGID_2_)" fill="#2AB45B" d="M115.006,46.021v-0.712c-0.539,0.578-1.252,0.878-2.088,0.878
		c-1.076,0-2.202-0.712-2.202-2.088c0-1.406,1.126-2.078,2.202-2.078c0.848,0,1.582,0.279,2.088,0.869v-1.125
		c0-0.86-0.683-1.346-1.592-1.346c-0.766,0-1.376,0.28-1.922,0.879l-0.466-0.683c0.682-0.703,1.489-1.033,2.512-1.033
		c1.322,0,2.429,0.6,2.429,2.12v4.32H115.006z M115.006,44.698v-1.188c-0.383-0.517-1.055-0.786-1.748-0.786
		c-0.91,0-1.54,0.579-1.54,1.385c0,0.796,0.63,1.376,1.54,1.376C113.951,45.484,114.624,45.215,115.006,44.698"/>
	<path clip-path="url(#SVGID_2_)" fill="#2AB45B" d="M121.278,46.021v-6.272h3.459c1.121,0,1.771,0.649,1.771,1.612
		c0,0.743-0.469,1.249-1.013,1.426c0.63,0.143,1.152,0.815,1.152,1.529c0,1.013-0.693,1.706-1.829,1.706H121.278z M125.505,41.494
		c0-0.537-0.347-0.899-0.944-0.899h-2.301v1.777h2.301C125.168,42.372,125.505,41.99,125.505,41.494 M125.635,44.201
		c0-0.506-0.356-0.981-1.014-0.981h-2.361v1.954h2.361C125.243,45.174,125.635,44.801,125.635,44.201"/>
	<path clip-path="url(#SVGID_2_)" fill="#2AB45B" d="M132.398,46.021v-0.712c-0.495,0.578-1.229,0.878-2.066,0.878
		c-1.053,0-2.201-0.712-2.201-2.088c0-1.406,1.148-2.078,2.201-2.078c0.848,0,1.582,0.279,2.066,0.869v-1.125
		c0-0.86-0.66-1.346-1.548-1.346c-0.766,0-1.375,0.28-1.944,0.879l-0.446-0.683c0.663-0.703,1.47-1.033,2.492-1.033
		c1.345,0,2.428,0.6,2.428,2.12v4.32H132.398z M132.398,44.698v-1.188c-0.338-0.517-1.033-0.786-1.703-0.786
		c-0.933,0-1.563,0.579-1.563,1.385c0,0.796,0.63,1.376,1.563,1.376C131.365,45.484,132.06,45.215,132.398,44.698"/>
	<polygon clip-path="url(#SVGID_2_)" fill="#2AB45B" points="143.582,39.748 143.582,46.021 135.344,46.021 135.344,39.748 
		136.327,39.748 136.327,45.174 138.972,45.174 138.972,39.748 139.955,39.748 139.955,45.174 142.599,45.174 142.599,39.748 	"/>
	<path clip-path="url(#SVGID_2_)" fill="#2AB45B" d="M145.173,42.878c0-1.818,1.279-3.296,3.078-3.296
		c1.925,0,3.018,1.488,3.018,3.38v0.237h-5.073c0.061,1.188,0.888,2.181,2.252,2.181c0.735,0,1.437-0.289,1.955-0.795l0.454,0.63
		c-0.621,0.619-1.457,0.972-2.479,0.972C146.483,46.187,145.173,44.831,145.173,42.878 M148.241,40.388
		c-1.354,0-2.005,1.126-2.045,2.098h4.102C150.288,41.557,149.667,40.388,148.241,40.388"/>
	<polygon clip-path="url(#SVGID_2_)" fill="#2AB45B" points="157.253,40.595 153.833,40.595 153.833,46.021 152.851,46.021 
		152.851,39.748 157.253,39.748 	"/>
	<path clip-path="url(#SVGID_2_)" fill="#2AB45B" d="M158.14,42.878c0-1.818,1.199-3.296,3.135-3.296
		c1.889,0,3.088,1.478,3.088,3.296c0,1.819-1.199,3.308-3.088,3.308C159.339,46.187,158.14,44.698,158.14,42.878 M163.34,42.878
		c0-1.282-0.756-2.418-2.065-2.418c-1.356,0-2.122,1.136-2.122,2.418c0,1.292,0.766,2.43,2.122,2.43
		C162.584,45.308,163.34,44.171,163.34,42.878"/>
	<polygon clip-path="url(#SVGID_2_)" fill="#2AB45B" points="169.325,46.021 169.325,39.748 170.307,39.748 170.307,44.532 
		173.582,39.748 174.554,39.748 174.554,46.021 173.572,46.021 173.572,41.121 170.232,46.021 	"/>
	<polygon clip-path="url(#SVGID_2_)" fill="#2AB45B" points="176.518,46.021 176.518,39.748 177.457,39.748 177.457,42.363 
		180.766,42.363 180.766,39.748 181.749,39.748 181.749,46.021 180.766,46.021 180.766,43.209 177.457,43.209 177.457,46.021 	"/>
	<polygon clip-path="url(#SVGID_2_)" fill="#2AB45B" points="184.826,46.021 184.826,40.595 183.007,40.595 183.007,39.748 
		187.638,39.748 187.638,40.595 185.808,40.595 185.808,46.021 	"/>
	<path clip-path="url(#SVGID_2_)" fill="#2AB45B" d="M188.524,42.878c0-1.818,1.325-3.296,3.124-3.296
		c1.88,0,3.018,1.488,3.018,3.38v0.237h-5.073c0.061,1.188,0.887,2.181,2.252,2.181c0.69,0,1.436-0.289,1.909-0.795l0.498,0.63
		c-0.619,0.619-1.501,0.972-2.523,0.972C189.879,46.187,188.524,44.831,188.524,42.878 M191.638,40.388
		c-1.356,0-2.006,1.126-2.046,2.098h4.101C193.683,41.557,193.064,40.388,191.638,40.388"/>
	<path clip-path="url(#SVGID_2_)" fill="#2AB45B" d="M197.184,45.081v3.338h-0.938v-8.671h0.938v0.929
		c0.488-0.63,1.274-1.095,2.142-1.095c1.642,0,2.801,1.261,2.801,3.296c0,2.025-1.159,3.308-2.801,3.308
		C198.478,46.187,197.712,45.783,197.184,45.081 M201.104,42.878c0-1.395-0.766-2.418-2.016-2.418c-0.775,0-1.551,0.443-1.904,1.003
		v2.831c0.354,0.537,1.129,1.014,1.904,1.014C200.338,45.308,201.104,44.275,201.104,42.878"/>
	<polygon clip-path="url(#SVGID_2_)" fill="#2AB45B" points="203.687,46.021 203.687,39.748 204.625,39.748 204.625,42.363 
		207.935,42.363 207.935,39.748 208.917,39.748 208.917,46.021 207.935,46.021 207.935,43.209 204.625,43.209 204.625,46.021 	"/>
	<path clip-path="url(#SVGID_2_)" fill="#2AB45B" d="M210.464,42.878c0-1.818,1.324-3.296,3.123-3.296
		c1.88,0,3.018,1.488,3.018,3.38v0.237h-5.073c0.061,1.188,0.888,2.181,2.252,2.181c0.69,0,1.437-0.289,1.91-0.795l0.498,0.63
		c-0.62,0.619-1.5,0.972-2.523,0.972C211.819,46.187,210.464,44.831,210.464,42.878 M213.578,40.388
		c-1.355,0-2.006,1.126-2.046,2.098h4.101C215.623,41.557,215.003,40.388,213.578,40.388"/>
	<polygon clip-path="url(#SVGID_2_)" fill="#2AB45B" points="219.3,46.021 219.3,40.595 217.482,40.595 217.482,39.748 
		222.113,39.748 222.113,40.595 220.283,40.595 220.283,46.021 	"/>
	<rect x="222.827" y="42.456" clip-path="url(#SVGID_2_)" fill="#2AB45B" width="3.099" height="0.847"/>
	<polygon clip-path="url(#SVGID_2_)" fill="#2AB45B" points="232.737,46.021 232.737,41.09 230.701,46.021 230.329,46.021 
		228.283,41.09 228.283,46.021 227.3,46.021 227.3,39.748 228.571,39.748 230.515,44.398 232.395,39.748 233.719,39.748 
		233.719,46.021 	"/>
	<path clip-path="url(#SVGID_2_)" fill="#2AB45B" d="M239.588,46.021v-0.712c-0.494,0.578-1.229,0.878-2.066,0.878
		c-1.053,0-2.201-0.712-2.201-2.088c0-1.406,1.148-2.078,2.201-2.078c0.847,0,1.582,0.279,2.066,0.869v-1.125
		c0-0.86-0.66-1.346-1.592-1.346c-0.722,0-1.332,0.28-1.899,0.879l-0.489-0.683c0.705-0.703,1.512-1.033,2.534-1.033
		c1.345,0,2.429,0.6,2.429,2.12v4.32H239.588z M239.588,44.698v-1.188c-0.384-0.517-1.033-0.786-1.703-0.786
		c-0.933,0-1.562,0.579-1.562,1.385c0,0.796,0.629,1.376,1.562,1.376C238.555,45.484,239.205,45.215,239.588,44.698"/>
	<polygon clip-path="url(#SVGID_2_)" fill="#2AB45B" points="246.938,40.595 243.518,40.595 243.518,46.021 242.536,46.021 
		242.536,39.748 246.938,39.748 	"/>
	<path clip-path="url(#SVGID_2_)" fill="#2AB45B" d="M252.102,46.021v-0.712c-0.494,0.578-1.229,0.878-2.065,0.878
		c-1.053,0-2.201-0.712-2.201-2.088c0-1.406,1.148-2.078,2.201-2.078c0.847,0,1.582,0.279,2.065,0.869v-1.125
		c0-0.86-0.659-1.346-1.547-1.346c-0.766,0-1.375,0.28-1.944,0.879l-0.444-0.683c0.661-0.703,1.467-1.033,2.49-1.033
		c1.345,0,2.428,0.6,2.428,2.12v4.32H252.102z M252.102,44.698v-1.188c-0.337-0.517-1.032-0.786-1.703-0.786
		c-0.932,0-1.562,0.579-1.562,1.385c0,0.796,0.63,1.376,1.562,1.376C251.07,45.484,251.765,45.215,252.102,44.698"/>
	<path clip-path="url(#SVGID_2_)" fill="#2AB45B" d="M254.44,45.141l0.464-0.62c0.589,0.569,1.414,0.859,2.367,0.859
		c1.139,0,1.839-0.445,1.839-1.095c0-0.786-0.856-1.055-1.984-1.055h-1.406v-0.774h1.406c1.077,0,1.894-0.353,1.894-1.066
		c0-0.599-0.796-1.002-1.828-1.002c-0.913,0-1.583,0.269-2.132,0.806l-0.484-0.599c0.545-0.6,1.427-1.003,2.539-1.003
		c1.719-0.011,2.918,0.609,2.918,1.685c0,0.93-0.963,1.436-1.718,1.529c0.745,0.063,1.819,0.497,1.819,1.53
		c0,1.065-1.054,1.851-2.862,1.851C256.021,46.187,255.059,45.783,254.44,45.141"/>
	<polygon clip-path="url(#SVGID_2_)" fill="#2AB45B" points="261.724,46.021 261.724,39.748 262.707,39.748 262.707,44.532 
		265.982,39.748 266.954,39.748 266.954,46.021 265.971,46.021 265.971,41.121 262.676,46.021 	"/>
	<polygon clip-path="url(#SVGID_2_)" fill="#2AB45B" points="268.918,46.021 268.918,39.748 269.901,39.748 269.901,42.363 
		273.166,42.363 273.166,39.748 274.148,39.748 274.148,46.021 273.166,46.021 273.166,43.209 269.901,43.209 269.901,46.021 	"/>
	<path clip-path="url(#SVGID_2_)" fill="#2AB45B" d="M280.017,46.021v-0.712c-0.494,0.578-1.229,0.878-2.065,0.878
		c-1.098,0-2.202-0.712-2.202-2.088c0-1.406,1.104-2.078,2.202-2.078c0.847,0,1.582,0.279,2.065,0.869v-1.125
		c0-0.86-0.66-1.346-1.592-1.346c-0.722,0-1.375,0.28-1.9,0.879l-0.487-0.683c0.704-0.703,1.511-1.033,2.534-1.033
		c1.3,0,2.429,0.6,2.429,2.12v4.32H280.017z M280.017,44.698v-1.188c-0.383-0.517-1.033-0.786-1.703-0.786
		c-0.932,0-1.563,0.579-1.563,1.385c0,0.796,0.631,1.376,1.563,1.376C278.984,45.484,279.634,45.215,280.017,44.698"/>
</g>
</svg>
